<mxfile host="app.diagrams.net" modified="2023-12-05T22:47:19.062Z" agent="Mozilla/5.0 (X11; Linux x86_64) AppleWebKit/537.36 (KHTML, like Gecko) Chrome/118.0.0.0 Safari/537.36" etag="WXiarpucdL42rLiJtVdW" version="22.1.5" type="device">
  <diagram name="PÃ¡gina-1" id="WLFjk1zZ19zPnBV9VVPP">
    <mxGraphModel dx="2868" dy="1540" grid="1" gridSize="10" guides="1" tooltips="1" connect="1" arrows="1" fold="1" page="1" pageScale="1" pageWidth="827" pageHeight="1169" math="0" shadow="0">
      <root>
        <mxCell id="0" />
        <mxCell id="1" parent="0" />
        <mxCell id="OijY9oKpJFleOv_UUCAf-1" value="" style="rounded=0;whiteSpace=wrap;html=1;fontSize=16;fillColor=none;dashed=1;" parent="1" vertex="1">
          <mxGeometry x="503" y="331" width="145" height="281" as="geometry" />
        </mxCell>
        <mxCell id="OijY9oKpJFleOv_UUCAf-2" value="" style="rounded=0;whiteSpace=wrap;html=1;fontSize=16;fillColor=none;dashed=1;" parent="1" vertex="1">
          <mxGeometry x="338" y="331" width="145" height="281" as="geometry" />
        </mxCell>
        <mxCell id="OijY9oKpJFleOv_UUCAf-3" value="POD" style="rounded=0;whiteSpace=wrap;html=1;fontSize=16;" parent="1" vertex="1">
          <mxGeometry x="363" y="352" width="99" height="39" as="geometry" />
        </mxCell>
        <mxCell id="OijY9oKpJFleOv_UUCAf-4" value="ReplicaSet" style="rounded=0;whiteSpace=wrap;html=1;fontSize=16;" parent="1" vertex="1">
          <mxGeometry x="363" y="399" width="99" height="39" as="geometry" />
        </mxCell>
        <mxCell id="OijY9oKpJFleOv_UUCAf-5" value="Deployment" style="rounded=0;whiteSpace=wrap;html=1;fontSize=16;fillColor=#fff2cc;strokeColor=#d6b656;" parent="1" vertex="1">
          <mxGeometry x="363" y="450" width="99" height="39" as="geometry" />
        </mxCell>
        <mxCell id="OijY9oKpJFleOv_UUCAf-6" value="StatefulSet" style="rounded=0;whiteSpace=wrap;html=1;fontSize=16;" parent="1" vertex="1">
          <mxGeometry x="363" y="501" width="99" height="39" as="geometry" />
        </mxCell>
        <mxCell id="OijY9oKpJFleOv_UUCAf-7" value="DaemonSet" style="rounded=0;whiteSpace=wrap;html=1;fontSize=16;" parent="1" vertex="1">
          <mxGeometry x="363" y="554" width="99" height="39" as="geometry" />
        </mxCell>
        <mxCell id="OijY9oKpJFleOv_UUCAf-8" value="NodePort" style="rounded=0;whiteSpace=wrap;html=1;fontSize=16;" parent="1" vertex="1">
          <mxGeometry x="522" y="450" width="99" height="39" as="geometry" />
        </mxCell>
        <mxCell id="OijY9oKpJFleOv_UUCAf-9" value="ClusterIP" style="rounded=0;whiteSpace=wrap;html=1;fontSize=16;" parent="1" vertex="1">
          <mxGeometry x="522" y="399" width="99" height="39" as="geometry" />
        </mxCell>
        <mxCell id="OijY9oKpJFleOv_UUCAf-10" value="Service" style="rounded=0;whiteSpace=wrap;html=1;fontSize=16;fillColor=#fff2cc;strokeColor=#d6b656;" parent="1" vertex="1">
          <mxGeometry x="522" y="348" width="99" height="39" as="geometry" />
        </mxCell>
        <mxCell id="OijY9oKpJFleOv_UUCAf-11" value="LoadBalance" style="rounded=0;whiteSpace=wrap;html=1;fontSize=16;" parent="1" vertex="1">
          <mxGeometry x="522" y="501" width="99" height="39" as="geometry" />
        </mxCell>
        <mxCell id="OijY9oKpJFleOv_UUCAf-12" value="" style="rounded=0;whiteSpace=wrap;html=1;fontSize=16;fillColor=none;dashed=1;" parent="1" vertex="1">
          <mxGeometry x="670" y="331" width="145" height="281" as="geometry" />
        </mxCell>
        <mxCell id="OijY9oKpJFleOv_UUCAf-13" value="Middleware" style="rounded=0;whiteSpace=wrap;html=1;fontSize=16;" parent="1" vertex="1">
          <mxGeometry x="689" y="450" width="99" height="39" as="geometry" />
        </mxCell>
        <mxCell id="OijY9oKpJFleOv_UUCAf-14" value="Ingressroute" style="rounded=0;whiteSpace=wrap;html=1;fontSize=16;" parent="1" vertex="1">
          <mxGeometry x="689" y="399" width="99" height="39" as="geometry" />
        </mxCell>
        <mxCell id="OijY9oKpJFleOv_UUCAf-15" value="traefik" style="rounded=0;whiteSpace=wrap;html=1;fontSize=16;fillColor=#fff2cc;strokeColor=#d6b656;" parent="1" vertex="1">
          <mxGeometry x="689" y="348" width="99" height="39" as="geometry" />
        </mxCell>
        <mxCell id="OijY9oKpJFleOv_UUCAf-16" value="" style="rounded=0;whiteSpace=wrap;html=1;fontSize=16;fillColor=none;dashed=1;" parent="1" vertex="1">
          <mxGeometry x="174" y="333" width="145" height="281" as="geometry" />
        </mxCell>
        <mxCell id="OijY9oKpJFleOv_UUCAf-17" value="limits" style="rounded=0;whiteSpace=wrap;html=1;fontSize=16;" parent="1" vertex="1">
          <mxGeometry x="193" y="452" width="99" height="39" as="geometry" />
        </mxCell>
        <mxCell id="OijY9oKpJFleOv_UUCAf-18" value="requests" style="rounded=0;whiteSpace=wrap;html=1;fontSize=16;" parent="1" vertex="1">
          <mxGeometry x="193" y="401" width="99" height="39" as="geometry" />
        </mxCell>
        <mxCell id="OijY9oKpJFleOv_UUCAf-19" value="resources" style="rounded=0;whiteSpace=wrap;html=1;fontSize=16;fillColor=#fff2cc;strokeColor=#d6b656;" parent="1" vertex="1">
          <mxGeometry x="193" y="350" width="99" height="39" as="geometry" />
        </mxCell>
        <mxCell id="OijY9oKpJFleOv_UUCAf-20" value="LimitRange" style="rounded=0;whiteSpace=wrap;html=1;fontSize=16;" parent="1" vertex="1">
          <mxGeometry x="193" y="503" width="99" height="39" as="geometry" />
        </mxCell>
        <mxCell id="OijY9oKpJFleOv_UUCAf-21" value="HPA" style="rounded=0;whiteSpace=wrap;html=1;fontSize=16;" parent="1" vertex="1">
          <mxGeometry x="193" y="554" width="99" height="39" as="geometry" />
        </mxCell>
        <mxCell id="OijY9oKpJFleOv_UUCAf-22" value="" style="rounded=0;whiteSpace=wrap;html=1;fontSize=16;fillColor=none;dashed=1;" parent="1" vertex="1">
          <mxGeometry x="335" y="632" width="145" height="281" as="geometry" />
        </mxCell>
        <mxCell id="OijY9oKpJFleOv_UUCAf-23" value="persistent volume" style="rounded=0;whiteSpace=wrap;html=1;fontSize=16;" parent="1" vertex="1">
          <mxGeometry x="354" y="751" width="99" height="39" as="geometry" />
        </mxCell>
        <mxCell id="OijY9oKpJFleOv_UUCAf-24" value="storage class" style="rounded=0;whiteSpace=wrap;html=1;fontSize=16;" parent="1" vertex="1">
          <mxGeometry x="354" y="700" width="99" height="39" as="geometry" />
        </mxCell>
        <mxCell id="OijY9oKpJFleOv_UUCAf-25" value="NFS" style="rounded=0;whiteSpace=wrap;html=1;fontSize=16;fillColor=#fff2cc;strokeColor=#d6b656;" parent="1" vertex="1">
          <mxGeometry x="354" y="649" width="99" height="39" as="geometry" />
        </mxCell>
        <mxCell id="OijY9oKpJFleOv_UUCAf-26" value="persistent volumeClaim" style="rounded=0;whiteSpace=wrap;html=1;fontSize=16;" parent="1" vertex="1">
          <mxGeometry x="354" y="802" width="99" height="39" as="geometry" />
        </mxCell>
        <mxCell id="OijY9oKpJFleOv_UUCAf-27" value="" style="rounded=0;whiteSpace=wrap;html=1;fontSize=16;fillColor=none;dashed=1;" parent="1" vertex="1">
          <mxGeometry x="338" y="30" width="145" height="281" as="geometry" />
        </mxCell>
        <mxCell id="OijY9oKpJFleOv_UUCAf-28" value="configMap" style="rounded=0;whiteSpace=wrap;html=1;fontSize=16;" parent="1" vertex="1">
          <mxGeometry x="363" y="51" width="99" height="39" as="geometry" />
        </mxCell>
        <mxCell id="OijY9oKpJFleOv_UUCAf-29" value="secrets" style="rounded=0;whiteSpace=wrap;html=1;fontSize=16;fillColor=#fff2cc;strokeColor=#d6b656;" parent="1" vertex="1">
          <mxGeometry x="363" y="98" width="99" height="39" as="geometry" />
        </mxCell>
        <mxCell id="OijY9oKpJFleOv_UUCAf-30" value="service&lt;br&gt;account" style="rounded=0;whiteSpace=wrap;html=1;fontSize=16;fillColor=#fff2cc;strokeColor=#d6b656;" parent="1" vertex="1">
          <mxGeometry x="363" y="149" width="99" height="39" as="geometry" />
        </mxCell>
        <mxCell id="OijY9oKpJFleOv_UUCAf-31" value="role" style="rounded=0;whiteSpace=wrap;html=1;fontSize=16;" parent="1" vertex="1">
          <mxGeometry x="363" y="200" width="99" height="39" as="geometry" />
        </mxCell>
        <mxCell id="OijY9oKpJFleOv_UUCAf-32" value="rolebinding" style="rounded=0;whiteSpace=wrap;html=1;fontSize=16;" parent="1" vertex="1">
          <mxGeometry x="363" y="254" width="99" height="39" as="geometry" />
        </mxCell>
        <mxCell id="OijY9oKpJFleOv_UUCAf-33" value="" style="rounded=0;whiteSpace=wrap;html=1;fontSize=16;fillColor=none;dashed=1;" parent="1" vertex="1">
          <mxGeometry x="10" y="333" width="145" height="281" as="geometry" />
        </mxCell>
        <mxCell id="OijY9oKpJFleOv_UUCAf-34" value="readiness" style="rounded=0;whiteSpace=wrap;html=1;fontSize=16;" parent="1" vertex="1">
          <mxGeometry x="29" y="452" width="99" height="39" as="geometry" />
        </mxCell>
        <mxCell id="OijY9oKpJFleOv_UUCAf-35" value="startup" style="rounded=0;whiteSpace=wrap;html=1;fontSize=16;" parent="1" vertex="1">
          <mxGeometry x="29" y="401" width="99" height="39" as="geometry" />
        </mxCell>
        <mxCell id="OijY9oKpJFleOv_UUCAf-36" value="self healing" style="rounded=0;whiteSpace=wrap;html=1;fontSize=16;fillColor=#fff2cc;strokeColor=#d6b656;" parent="1" vertex="1">
          <mxGeometry x="29" y="350" width="99" height="39" as="geometry" />
        </mxCell>
        <mxCell id="OijY9oKpJFleOv_UUCAf-37" value="liveness" style="rounded=0;whiteSpace=wrap;html=1;fontSize=16;" parent="1" vertex="1">
          <mxGeometry x="29" y="503" width="99" height="39" as="geometry" />
        </mxCell>
        <mxCell id="NkN0bC7nrpHs33pr2cW3-1" value="" style="rounded=0;whiteSpace=wrap;html=1;fontSize=16;fillColor=none;dashed=1;" vertex="1" parent="1">
          <mxGeometry x="174" y="632" width="145" height="281" as="geometry" />
        </mxCell>
        <mxCell id="NkN0bC7nrpHs33pr2cW3-2" value="rollingUpdate" style="rounded=0;whiteSpace=wrap;html=1;fontSize=16;" vertex="1" parent="1">
          <mxGeometry x="193" y="751" width="99" height="39" as="geometry" />
        </mxCell>
        <mxCell id="NkN0bC7nrpHs33pr2cW3-3" value="recreate" style="rounded=0;whiteSpace=wrap;html=1;fontSize=16;" vertex="1" parent="1">
          <mxGeometry x="193" y="700" width="99" height="39" as="geometry" />
        </mxCell>
        <mxCell id="NkN0bC7nrpHs33pr2cW3-4" value="strategy" style="rounded=0;whiteSpace=wrap;html=1;fontSize=16;fillColor=#fff2cc;strokeColor=#d6b656;" vertex="1" parent="1">
          <mxGeometry x="193" y="649" width="99" height="39" as="geometry" />
        </mxCell>
        <mxCell id="NkN0bC7nrpHs33pr2cW3-5" value="canary" style="rounded=0;whiteSpace=wrap;html=1;fontSize=16;" vertex="1" parent="1">
          <mxGeometry x="193" y="802" width="99" height="39" as="geometry" />
        </mxCell>
        <mxCell id="NkN0bC7nrpHs33pr2cW3-6" value="blue/green" style="rounded=0;whiteSpace=wrap;html=1;fontSize=16;" vertex="1" parent="1">
          <mxGeometry x="193" y="860" width="99" height="39" as="geometry" />
        </mxCell>
      </root>
    </mxGraphModel>
  </diagram>
</mxfile>
